<svg xmlns="http://www.w3.org/2000/svg" viewBox="0 0 640 291.3" enable-background="new 0 0 640 291.3"><path d="M622.8 159.6c-.9-1.2-.1-3 3.8-6.3l4.9-4.8s1.4-1.8 1.2-5.3c-.8-11.9-1-11.4-2-15.6 0 0-.9-4.7-6.9-2.4l-14.4 8.1s-3.7 1.6-6.2-3.7l-5.3-8.7s-1-1.6 1.1-2.1c0 0 24.5-.3 21.4-26.8 0 0-3.9-15.3-26-11.3 0 0-17.1 3.3-26.2 19.8-13.4 2.9-21.7-.3-26.4-6.2-20.5-25.4-43-13-43-13-3.5 1.6-3.2-3.5-3.2-3.5.4-4.4-3.2-5.6-3.2-5.6L458 57.6c-4.6-2.9-5.6 1.2-5.6 1.2s-2.9 14.8-3 20.3c-.6 20.8-5.4 22.1-5.4 22.1l-10.9 5.5c-8.5-8.1-21.3-13.7-40.4-14.6-21.9-1-48.7 16.6-56.3 45.8-3-21.8-15.7-44.1-55.2-45.8-30.4-1.3-70.2 33.1-55.2 84.7-2.3-.9-5-1.7-8.1-2.2-5.8-1-4 11.2-10.8 11.2-3 0-6.9-2.9-7.7-42.7 0 0-1.1-11.4 3.5-10.9l16.4-.5s6.7 1.3 5.4-6.9l1.3-12.2s.7-6.5-7.7-5.3c-8.4 1.3-13.4.3-13.4.3s-5 1.9-2.6-8l1.5-19s1.5-4.7-5.1-7.7l-28.1-21s-5.8-3.3-6.7 2.9c-.9 6.1-5.8 46.2-5.8 46.2s-.3 6.4-7.3 4.9c4.2-9.1 5.7-19.4 3.6-28.5-5-20.6-22.1-23.4-22.1-23.4-33.1-7.5-52.1 21.1-55.8 37.2-1.5 6.6-3.7 5.3-3.8 5.3-.1 0-33.8-12.6-38.8 4.1-5.6 19 39.7 25.8 39.7 25.8 1.5-.2 2.3 1.5 2.3 1.5v25.6c-.6-.5-3 40.7-17.4 38.8-16.1-2.2-16.5-28.6-16.5-28.6s1.1-25.4-16.7-26.2c-9.6-.5-20.8 5.2-24.9 26.4-4.3 22.4 18.3 72 71 66.4 77.5-8.4 52.7-100.6 52.7-100.6 7-1.9 13.2-6 18.1-11.4 1.2 6.2 2.8 13.3 2.8 13.3s1.1 4.5 4.7 3h4.7s.6 1.3-1 6.5l-13.7 46.5c-1.6 3.6-1.1 4.6-.8 5.7l9.4 6.5s3.3 2.9 5.3-1.1c2.1-4 2.7-5.3 2.7-5.3s1.3-2.4 2.4-.2c1.2 2.2 4 18.6 20.9 28.7 8.5 5.1 38 4 51.6-11.7 0 0 2.9-4.1 4.7-9.5.5.8.9 1.6 1.4 2.4 7.8 13 30.2 21.7 53.5 16.3 23.8-5.6 39.5-28.3 41.8-38.8.2-1.1 1.4-5.6 2.4-12 2 10.7 6.3 22.3 13.8 34.5 7.8 13 30.2 21.7 53.5 16.3 23.8-5.6 39.5-28.3 41.8-38.8.2-1.3 1.8-7.2 2.9-15.5L444.5 267c-.6 6.1 1.2 6.2 1.2 6.2s21.1 9.7 38.7 16.4c7.5 2.9 7.3 3.5 7.5-8.2.8-36.5 2.4-94.5 2.4-94.5s.4-4.8 7.5-2.9c41.3 10.9 58.7-28.6 56.6-51.7-.3-3.4-.5-10.2 4.4-11.3.8 7.5 4.2 17.3 12.2 32.7l2.3 4.6s2.5 4.4-.5 5.1c0 0-26.2 12.6-24.9 37.9.8 14.8 14.9 36.5 48 35.5 37.3-1.2 39.7-39.1 39.7-37.7.3 1.3 1.9-15.6-16.8-39.5m-488.7-72c-1.6 4.6-4.3 10.1-14.3 10.8-.5 0-2.3-15.3 7.9-18.6 2.4-.8 9.5-1.2 6.4 7.8m147.1 94.8c-26.1-2.3-5.9-48.3-4-49.8 0 0 6.3 37 33.4 13.4 0 0-3.4 38.7-29.4 36.4m111.5 0c-26.1-2.3-5.9-48.3-4-49.8 0 0 6.3 37 33.4 13.4 0 0-3.3 38.7-29.4 36.4m104.7-37.3c-10.5-28.2 2.1-31.1 2.1-31.1 9.8 0 10 16.5 10 16.5-3.2 27.7-12.1 14.6-12.1 14.6m92.8 47.1c-2.2 1.5-5.1 5.4-5.7 1.2-.6-4.3 4.8-6.7 5.4-6.5 1.5.4 2.6 3.8.3 5.3"/></svg>